<svg class="border"
     height="400"
     width="400"
     viewBox="0 0 2 2"
     xmlns="http://www.w3.org/2000/svg"
     xmlns:xlink="http://www.w3.org/1999/xlink">
  <g transform="scale(1, -1) translate(1 1)"
     transform-origin="center">
    <circle class="text-green"
            fill="currentcolor"
            r=".02"
            cx="-0.5229722529535187"
            cy="-0.3589715396181347"></circle>
    <circle class="text-green"
            fill="currentcolor"
            r=".02"
            cx="3.1233373059330634e-16"
            cy="-0.45092484040701675"></circle>
    <circle class="text-green"
            fill="currentcolor"
            r=".02"
            cx="-0.5810802810594653"
            cy="0.08546941419479451"></circle>
    <circle class="text-green"
            fill="currentcolor"
            r=".02"
            cx="3.4837223796945706e-16"
            cy="3.4837223796945706e-16"></circle>
    <circle class="text-green"
            fill="currentcolor"
            r=".02"
            cx="-0.7542869032983445"
            cy="-0.7692247277531463"></circle>
    <circle class="text-green"
            fill="currentcolor"
            r=".02"
            cx="-0.1568916758860554"
            cy="-0.8923006841936498"></circle>
    <circle class="text-green"
            fill="currentcolor"
            r=".02"
            cx="-0.8526721515546505"
            cy="-0.30100098042514406"></circle>
    <circle class="text-green"
            fill="currentcolor"
            r=".02"
            cx="-0.17828599532506298"
            cy="-0.41957712422898885"></circle>
    <polygon vertexs="-0.5229722529535187,-0.3589715396181347,0.9679745110871353,1,3.1233373059330634e-16,-0.45092484040701675,0.9668011493314502,1,-0.5810802810594653,0.08546941419479451,0.9641936787632612,1,3.4837223796945706e-16,3.4837223796945706e-16,0.962739512484848,1,-0.7542869032983445,-0.7692247277531463,0.962739512484848,1,-0.1568916758860554,-0.8923006841936498,0.9611690129041619,1,-0.8526721515546505,-0.30100098042514406,0.957618318200002,1,-0.17828599532506298,-0.41957712422898885,0.9556008780271836,1"
             indexs="0,1,3,2,0,4,5,7,6,4,0,2,6,7,3,1,5"
             offset="0"
             fill="red"
             points="-0.5229722529535187,-0.3589715396181347 3.1233373059330634e-16,-0.45092484040701675 3.4837223796945706e-16,3.4837223796945706e-16 -0.5810802810594653,0.08546941419479451">
    </polygon>
    <line stroke="black"
          stroke-width="0.01"
          x1="-0.5229722529535187"
          y1="-0.3589715396181347"
          x2="3.1233373059330634e-16"
          y2="-0.45092484040701675"></line>
    <line stroke="black"
          stroke-width="0.01"
          x1="3.1233373059330634e-16"
          y1="-0.45092484040701675"
          x2="3.4837223796945706e-16"
          y2="3.4837223796945706e-16"></line>
    <line stroke="black"
          stroke-width="0.01"
          x1="3.4837223796945706e-16"
          y1="3.4837223796945706e-16"
          x2="-0.5810802810594653"
          y2="0.08546941419479451"></line>
    <line stroke="black"
          stroke-width="0.01"
          x1="-0.5810802810594653"
          y1="0.08546941419479451"
          x2="-0.5229722529535187"
          y2="-0.3589715396181347"></line>
    <line stroke="black"
          stroke-width="0.01"
          x1="-0.5229722529535187"
          y1="-0.3589715396181347"
          x2="-0.7542869032983445"
          y2="-0.7692247277531463"></line>
    <line stroke="black"
          stroke-width="0.01"
          x1="-0.7542869032983445"
          y1="-0.7692247277531463"
          x2="-0.1568916758860554"
          y2="-0.8923006841936498"></line>
    <line stroke="black"
          stroke-width="0.01"
          x1="-0.1568916758860554"
          y1="-0.8923006841936498"
          x2="-0.17828599532506298"
          y2="-0.41957712422898885"></line>
    <line stroke="black"
          stroke-width="0.01"
          x1="-0.17828599532506298"
          y1="-0.41957712422898885"
          x2="-0.8526721515546505"
          y2="-0.30100098042514406"></line>
    <line stroke="black"
          stroke-width="0.01"
          x1="-0.8526721515546505"
          y1="-0.30100098042514406"
          x2="-0.7542869032983445"
          y2="-0.7692247277531463"></line>
    <line stroke="black"
          stroke-width="0.01"
          x1="-0.7542869032983445"
          y1="-0.7692247277531463"
          x2="-0.5229722529535187"
          y2="-0.3589715396181347"></line>
    <line stroke="black"
          stroke-width="0.01"
          x1="-0.5229722529535187"
          y1="-0.3589715396181347"
          x2="-0.5810802810594653"
          y2="0.08546941419479451"></line>
    <line stroke="black"
          stroke-width="0.01"
          x1="-0.5810802810594653"
          y1="0.08546941419479451"
          x2="-0.8526721515546505"
          y2="-0.30100098042514406"></line>
    <line stroke="black"
          stroke-width="0.01"
          x1="-0.8526721515546505"
          y1="-0.30100098042514406"
          x2="-0.17828599532506298"
          y2="-0.41957712422898885"></line>
    <line stroke="black"
          stroke-width="0.01"
          x1="-0.17828599532506298"
          y1="-0.41957712422898885"
          x2="3.4837223796945706e-16"
          y2="3.4837223796945706e-16"></line>
    <line stroke="black"
          stroke-width="0.01"
          x1="3.4837223796945706e-16"
          y1="3.4837223796945706e-16"
          x2="3.1233373059330634e-16"
          y2="-0.45092484040701675"></line>
    <line stroke="black"
          stroke-width="0.01"
          x1="3.1233373059330634e-16"
          y1="-0.45092484040701675"
          x2="-0.1568916758860554"
          y2="-0.8923006841936498"></line>
    <path stroke-width="0.04"
          stroke="#000000"
          stroke-linecap="round"
          stroke-linejoin="round"
          d="M 0.22129062029404342 -0.012052450792430041 L 0.22994039962192922 0.15785813595464743 M 0.22994039962192922 0.15785813595464743 L 0.2548436380577226 0.6470410034165747 M 0.22994039962192922 0.15785813595464743 L 0.07374534960041912 0.05064265138178491 M 0.22994039962192922 0.15785813595464743 L 0.3759077248222168 0.007377170483920873 M 0.2548436380577226 0.6470410034165747 L 0.26638370119981614 0.8737264280088697 M 0.2548436380577226 0.6470410034165747 L 0.08680722906738887 0.8316741201170041 M 0.2548436380577226 0.6470410034165747 L 0.44399651704180587 0.7982554935219974 M -0.16494534614505252 0.23295991921405948 L 0.00879602255804293 0.29998556959342737 M 0.00879602255804293 0.29998556959342737 L 0.49450355145115943 0.48736120653772774 M 0.00879602255804293 0.29998556959342737 L -0.20228513401432555 0.37737591758302963 M 0.00879602255804293 0.29998556959342737 L -0.045883675933500616 0.12637413034145079 M 0.49450355145115943 0.48736120653772774 L 0.7125594096296932 0.5714824328313083 M 0.49450355145115943 0.48736120653772774 L 0.58390730174261 0.703208137748014 M 0.49450355145115943 0.48736120653772774 L 0.7260755834032714 0.4035105281332359 M -0.18047623056339301 0.6660140093847022 L 0.00927783556556582 0.5419386049303234 M 0.00927783556556582 0.5419386049303234 L 0.4694010575291064 0.24107656030950964 M 0.00927783556556582 0.5419386049303234 L -0.2080050996816434 0.5118636283004441 M 0.00927783556556582 0.5419386049303234 L -0.05240045672488466 0.7659457702996907 M 0.4694010575291064 0.24107656030950964 L 0.6479621218621928 0.1243199697929066 M 0.4694010575291064 0.24107656030950964 L 0.5084759770776258 0.04907463962885208 M 0.4694010575291064 0.24107656030950964 L 0.7048759929398027 0.2643065793748428">
    </path>
  </g>
</svg>